<svg width="12" height="12" viewBox="0 0 12 12" fill="none" xmlns="http://www.w3.org/2000/svg">
<path d="M1.13155 8.91634C1.21773 9.04817 1.27988 9.20946 1.39695 9.30352C1.50981 9.39418 1.67797 9.45726 1.82401 9.46104C2.44135 9.47804 3.05946 9.46859 3.67718 9.46784C3.69548 9.46784 3.71341 9.46141 3.74048 9.45613V4.21951C3.68519 4.21951 3.63447 4.21951 3.58376 4.21951C3.06098 4.21951 2.53744 4.23538 2.01543 4.2146C1.5815 4.19723 1.28027 4.34643 1.13079 4.75968V8.91634H1.13155Z" fill="white"/>
<path d="M10.0728 8.18014C10.4236 7.84093 10.5113 7.45752 10.3256 7.01405C10.3127 6.98346 10.3256 6.92377 10.3489 6.89884C10.657 6.57172 10.7294 6.20305 10.5479 5.79357C10.5128 5.71425 10.5514 5.68441 10.5941 5.63983C11.1145 5.09362 10.8617 4.22444 10.1273 4.04501C10.0183 4.01857 9.90122 4.0182 9.78797 4.01782C9.26024 4.01442 8.7325 4.01555 8.20439 4.01442C8.19524 4.01442 8.18608 4.00988 8.16092 4.00346C8.1838 3.89694 8.20934 3.79004 8.22994 3.68163C8.42898 2.62131 8.14833 1.7068 7.37389 0.947167C7.16989 0.74772 6.91861 0.700502 6.64902 0.801359C6.39431 0.896927 6.25666 1.08051 6.23606 1.3555C6.19717 1.8715 6.15485 2.38711 6.09994 2.90159C6.0904 2.99074 6.03435 3.10066 5.96343 3.15241C5.80938 3.26498 5.6416 3.37377 5.46239 3.43496C5.09938 3.55849 4.78098 3.74396 4.51025 4.00913C4.46602 4.05257 4.43285 4.12887 4.43247 4.19044C4.42827 5.77318 4.43018 7.35591 4.42713 8.93902C4.42713 9.03345 4.45496 9.07727 4.54495 9.11467C4.75887 9.20381 4.96745 9.30656 5.17564 9.40855C5.47001 9.55247 5.7762 9.62839 6.10794 9.62613C7.10164 9.61971 8.09686 9.59289 9.08903 9.63406C9.85851 9.66617 10.4568 8.97301 10.072 8.17976L10.0728 8.18014Z" fill="white"/>
</svg>
